{"glyphs":{"×":{"ha":0,"x_min":0,"x_max":0,"o":""},"ý":{"ha":0,"x_min":0,"x_max":0,"o":""},"Ł":{"ha":0,"x_min":0,"x_max":0,"o":""}," ":{"ha":656,"x_min":0,"x_max":0,"o":""},"!":{"ha":221,"x_min":0,"x_max":176,"o":"m 81 418 l 81 1018 q 38 993 51 1011 q 24 917 24 975 q 25 874 24 899 q 31 819 26 849 l 81 418 m 83 1 q 25 28 50 1 q 0 92 0 54 q 25 151 0 126 q 83 176 50 176 q 147 152 121 176 q 172 92 172 128 q 147 28 172 54 q 83 1 122 1 m 82 29 l 82 156 q 42 133 58 151 q 25 92 25 115 q 40 47 25 65 q 82 29 56 29 m 94 244 l 81 244 q 48 491 71 340 q 13 751 25 642 q 0 954 0 861 q 26 1019 0 996 q 89 1043 53 1043 q 151 1020 125 1043 q 176 954 176 997 q 166 756 176 843 q 128 490 156 668 q 94 244 101 313 z "},",":{"ha":190,"x_min":0,"x_max":172,"o":"m 82 29 l 82 156 q 42 133 58 151 q 25 92 25 115 q 40 47 25 65 q 82 29 56 29 m 172 83 q 140 -29 172 25 q 33 -122 108 -83 l 33 -112 q 83 1 83 -56 q 25 28 50 1 q 0 92 0 54 q 25 151 0 126 q 83 176 50 176 q 148 149 124 176 q 172 83 172 122 z "},".":{"ha":190,"x_min":0,"x_max":172,"o":"m 83 1 q 25 28 50 1 q 0 92 0 54 q 25 151 0 126 q 83 176 50 176 q 147 152 121 176 q 172 92 172 128 q 147 28 172 54 q 83 1 122 1 m 82 29 l 82 156 q 42 133 58 151 q 25 92 25 115 q 40 47 25 65 q 82 29 56 29 z "},":":{"ha":215,"x_min":0,"x_max":172,"o":"m 83 1 q 25 28 50 1 q 0 92 0 54 q 25 151 0 126 q 83 176 50 176 q 147 152 121 176 q 172 92 172 128 q 147 28 172 54 q 83 1 122 1 m 81 33 l 81 150 q 44 128 58 144 q 29 92 29 113 q 43 50 29 67 q 81 33 57 33 m 83 447 q 25 474 50 447 q 0 536 0 500 q 25 596 0 571 q 83 621 50 621 q 147 597 121 621 q 172 536 172 572 q 147 473 172 499 q 83 447 121 447 m 81 478 l 81 594 q 44 573 58 589 q 29 536 29 557 q 43 494 29 511 q 81 478 57 478 z "},";":{"ha":221,"x_min":0,"x_max":172,"o":"m 82 29 l 82 156 q 42 133 58 151 q 25 92 25 115 q 40 47 25 65 q 82 29 56 29 m 172 83 q 140 -29 172 25 q 33 -122 108 -83 l 33 -112 q 83 1 83 -56 q 25 28 50 1 q 0 92 0 54 q 25 151 0 126 q 83 176 50 176 q 148 149 124 176 q 172 83 172 122 m 83 447 q 25 474 50 447 q 0 536 0 500 q 25 596 0 571 q 83 621 50 621 q 147 597 121 621 q 172 536 172 572 q 147 473 172 499 q 83 447 121 447 m 81 478 l 81 594 q 44 573 58 589 q 29 536 29 557 q 43 494 29 511 q 81 478 57 478 z "},"?":{"ha":368,"x_min":1,"x_max":315,"o":"m 117 1 q 58 28 83 1 q 33 92 33 54 q 58 151 33 126 q 117 176 83 176 q 179 153 154 176 q 204 92 204 129 q 179 28 204 54 q 117 1 154 1 m 286 957 q 315 839 315 897 q 256 668 315 761 q 142 508 199 588 q 81 329 81 411 q 116 273 89 297 q 178 236 143 249 q 58 281 115 231 q 1 428 1 331 q 22 547 1 486 q 101 693 26 565 q 176 874 176 821 q 167 926 176 899 q 139 978 158 953 q 78 996 117 996 q 37 992 60 996 q 4 988 14 989 q 131 1044 44 1044 q 223 1023 181 1044 q 286 957 265 1001 m 238 846 q 216 941 238 903 q 143 1001 194 979 q 204 871 204 949 q 184 783 204 822 q 95 634 164 743 q 26 440 26 525 q 34 378 26 407 q 60 315 42 350 q 49 353 54 332 q 44 403 44 374 q 69 525 44 476 q 162 684 94 574 q 238 846 229 794 m 113 33 l 113 150 q 76 128 90 144 q 61 92 61 113 q 75 50 61 67 q 113 33 89 33 z "},"A":{"ha":1221,"x_min":10,"x_max":1185,"o":"m 954 254 l 1061 40 l 1185 8 l 1185 0 l 676 0 l 676 8 l 876 35 l 872 49 q 824 185 853 110 q 763 336 794 260 l 332 336 q 276 207 301 276 q 215 33 250 138 l 381 8 l 381 0 l 10 0 l 10 8 l 142 35 l 219 203 l 561 1065 l 604 1065 l 954 254 m 979 40 l 975 49 l 575 981 l 553 910 l 922 40 l 979 40 m 742 385 q 667 564 714 458 q 579 757 621 669 q 536 844 538 844 q 442 632 493 756 q 349 385 392 508 q 550 372 453 372 q 742 385 643 372 z "},"B":{"ha":942,"x_min":0,"x_max":892,"o":"m 181 1008 l 0 1039 l 0 1044 l 526 1044 q 719 985 643 1044 q 803 853 796 925 q 807 804 807 828 q 739 624 807 669 q 651 569 671 578 q 582 549 631 560 q 744 510 671 549 q 860 393 818 471 q 892 268 892 343 q 878 180 892 221 q 827 99 865 139 q 732 33 789 58 q 607 0 675 7 l 0 0 l 0 8 l 181 33 q 192 188 189 107 q 194 361 194 268 q 188 701 194 467 q 181 1008 181 935 m 696 926 q 608 1001 660 978 q 492 1025 556 1025 q 458 1024 469 1025 q 540 1008 514 1014 q 604 972 567 1001 q 664 887 642 943 q 686 763 686 831 q 649 642 679 692 q 540 557 618 593 q 633 594 599 576 q 699 665 667 611 q 731 799 731 718 q 696 926 731 869 m 631 893 q 551 972 604 947 q 431 997 499 997 q 361 992 393 997 q 354 833 361 944 q 347 682 347 722 q 347 639 347 657 q 353 582 347 621 l 361 574 q 397 568 385 569 q 435 567 410 567 q 538 585 493 567 q 614 647 583 603 q 654 781 654 700 q 631 893 654 842 m 778 401 q 680 499 743 467 q 540 532 617 532 q 652 485 597 521 q 738 401 707 450 q 767 278 767 347 q 738 147 767 206 q 651 56 708 89 q 532 17 594 24 q 557 15 540 15 q 674 43 619 15 q 771 122 729 71 q 811 275 811 183 q 778 401 811 354 m 664 443 q 563 501 619 483 q 439 518 506 518 q 393 517 408 518 q 381 515 390 514 q 367 517 372 517 q 353 508 357 517 q 352 402 353 456 q 351 294 351 349 q 353 178 351 224 q 361 82 356 133 q 504 42 415 42 q 538 43 525 42 q 588 52 550 44 q 664 101 626 60 q 724 207 701 143 q 730 251 729 238 q 731 272 731 264 q 715 364 731 321 q 664 443 699 407 m 275 1010 l 228 1010 l 228 35 l 275 35 l 275 1010 z "},"C":{"ha":1021,"x_min":1,"x_max":985,"o":"m 961 1060 l 969 1051 l 978 814 l 969 814 l 919 969 q 778 995 853 985 q 636 1006 704 1006 q 472 986 546 1006 q 325 909 397 967 q 211 749 253 851 q 169 531 169 647 q 190 363 169 444 q 349 145 233 235 q 539 48 464 56 q 626 40 614 40 q 653 40 639 40 q 833 78 747 40 q 978 190 919 117 l 985 190 l 879 -6 q 835 1 868 1 q 728 -6 814 1 q 583 -12 642 -12 q 334 22 446 -12 q 142 150 222 56 q 37 317 72 219 q 1 522 1 415 q 51 758 1 639 q 237 968 101 876 q 518 1060 372 1060 q 684 1054 578 1060 q 810 1049 790 1049 q 892 1051 869 1049 q 961 1060 914 1053 m 635 1035 l 518 1035 q 256 955 372 1035 q 88 758 140 875 q 35 510 35 640 q 53 366 35 436 q 133 202 71 296 q 320 59 194 108 q 625 10 446 10 q 317 91 457 10 q 117 322 176 172 q 85 518 85 415 q 182 829 85 699 q 369 990 257 944 q 635 1035 481 1035 z "},"D":{"ha":1225,"x_min":6,"x_max":1179,"o":"m 1096 811 q 1158 676 1136 753 q 1179 519 1179 600 q 1128 275 1179 399 q 945 76 1078 151 q 646 0 813 0 l 6 0 l 6 8 l 181 35 q 201 415 201 208 q 195 760 201 538 q 189 1008 189 982 l 8 1039 l 8 1044 q 301 1042 174 1043 q 596 1040 429 1042 q 888 990 763 1040 q 1096 811 1014 939 m 1031 786 q 835 972 957 926 q 518 1017 713 1017 q 774 973 665 1017 q 964 808 882 929 q 1046 515 1046 688 q 998 276 1046 389 q 845 99 950 164 q 614 21 740 35 q 865 86 757 35 q 1035 258 974 138 q 1096 524 1096 379 q 1081 660 1096 596 q 1031 786 1065 725 m 924 819 q 749 952 856 913 q 522 992 643 992 q 441 988 476 992 q 367 975 406 983 q 349 525 349 772 q 353 299 349 408 q 367 82 357 189 q 483 49 419 58 q 621 40 547 40 q 818 105 724 40 q 965 272 913 169 q 1014 508 1014 381 q 992 674 1014 593 q 924 819 969 754 m 232 1010 l 232 35 l 279 35 l 279 1010 l 232 1010 z "},"E":{"ha":824,"x_min":10,"x_max":781,"o":"m 350 517 q 349 470 350 499 q 349 399 349 442 q 352 227 349 307 q 365 74 356 147 q 482 54 419 60 q 611 49 544 49 q 707 53 663 49 l 772 225 l 781 225 l 763 0 l 18 0 l 18 8 l 182 38 q 207 518 207 265 q 182 1004 207 771 l 10 1039 l 10 1044 l 747 1044 l 764 824 l 756 824 l 699 996 q 616 1004 647 1001 q 550 1007 585 1007 q 446 999 494 1007 q 371 988 397 992 q 355 841 360 922 q 350 676 350 760 l 350 579 q 440 574 385 575 q 504 572 494 572 l 519 572 q 570 572 544 572 q 622 574 596 572 l 638 574 l 678 696 l 686 696 l 686 393 l 678 393 l 638 517 q 492 524 551 524 q 440 523 464 524 q 350 517 415 522 m 275 1010 l 228 1010 l 228 35 l 275 35 l 275 1010 z "},"F":{"ha":815,"x_min":6,"x_max":764,"o":"m 368 40 l 547 8 l 547 0 l 6 0 l 6 8 l 178 40 q 206 547 206 288 q 182 1004 206 776 l 10 1039 l 10 1044 l 747 1044 l 764 824 l 756 824 l 699 996 q 616 1004 647 1001 q 550 1007 585 1007 q 446 999 494 1007 q 371 988 397 992 q 355 841 360 922 q 350 676 350 760 l 350 579 q 440 574 385 575 q 504 572 494 572 l 519 572 q 570 572 544 572 q 622 574 596 572 l 638 574 l 678 696 l 686 696 l 686 393 l 678 393 l 638 517 q 492 524 551 524 q 440 523 464 524 q 350 517 415 522 q 347 440 349 490 q 346 361 346 389 q 349 222 346 290 q 361 92 351 154 l 368 40 m 275 1010 l 228 1010 l 228 35 l 275 35 l 275 1010 z "},"G":{"ha":1168,"x_min":21,"x_max":1126,"o":"m 971 1051 l 979 810 l 971 810 l 914 974 q 774 994 832 988 q 651 1001 717 1001 q 475 978 554 1001 q 328 894 396 956 q 224 738 261 832 q 188 543 188 644 q 231 328 188 438 q 393 138 274 219 q 643 56 513 56 q 840 81 742 56 q 849 124 846 96 q 851 185 851 153 q 848 276 851 235 q 840 350 844 318 l 660 383 l 660 392 l 1126 392 l 1126 383 l 1024 353 q 1009 213 1014 271 q 1004 88 1004 156 q 802 15 914 42 q 583 -12 690 -12 q 394 10 481 -12 q 219 92 308 32 q 75 262 129 151 q 21 503 21 372 q 44 676 21 572 q 156 882 68 781 q 333 1011 243 983 q 487 1047 422 1039 q 617 1054 551 1054 q 742 1051 685 1054 q 879 1046 799 1049 q 971 1051 932 1046 m 922 104 l 922 358 l 881 358 l 881 90 q 899 94 890 92 q 922 104 908 97 m 646 10 q 338 91 478 10 q 138 322 197 172 q 106 519 106 418 q 130 686 106 606 q 203 829 154 767 q 390 989 278 943 q 656 1035 501 1035 q 615 1038 638 1038 q 582 1038 593 1038 q 279 956 397 1038 q 108 757 161 874 q 56 510 56 640 q 74 366 56 436 q 153 202 92 296 q 341 59 215 108 q 646 10 467 10 z "},"H":{"ha":1381,"x_min":0,"x_max":1336,"o":"m 1026 553 q 1017 788 1026 647 q 1008 1004 1008 929 l 811 1039 l 811 1044 l 1336 1044 l 1336 1039 l 1190 1004 q 1182 856 1185 944 q 1179 682 1179 768 q 1185 308 1179 551 q 1190 40 1190 64 l 1336 6 l 1336 0 l 811 0 l 811 6 l 1008 40 q 1016 277 1008 121 q 1024 496 1024 433 l 314 496 q 321 268 314 408 q 328 40 328 128 l 525 6 l 525 0 l 0 0 l 0 6 l 146 40 l 146 1004 l 0 1039 l 0 1044 l 525 1044 l 525 1039 l 328 1004 q 321 779 328 915 q 314 553 314 643 q 489 539 401 543 q 675 535 576 535 q 853 539 765 535 q 1026 553 940 543 m 238 1010 l 190 1010 l 190 35 l 238 35 l 238 1010 m 1061 1010 l 1061 35 l 1108 35 l 1108 1010 l 1061 1010 z "},"I":{"ha":578,"x_min":8,"x_max":539,"o":"m 367 35 l 539 6 l 539 0 l 13 0 l 13 6 l 178 38 q 201 496 201 265 q 174 1008 201 754 l 8 1039 l 8 1044 l 535 1044 l 535 1039 l 363 1010 q 336 540 336 789 q 367 35 336 275 m 275 1010 l 228 1010 l 228 35 l 275 35 l 275 1010 z "},"J":{"ha":768,"x_min":13,"x_max":725,"o":"m 725 1044 l 725 1039 l 578 1010 q 560 815 564 928 q 557 668 557 701 l 557 526 q 553 343 557 413 q 536 190 550 274 q 472 78 518 128 q 383 15 426 29 q 307 -3 340 1 q 244 -7 274 -7 q 44 26 149 -7 l 13 256 l 29 256 l 103 83 q 169 50 133 63 q 240 38 204 38 q 283 43 265 38 q 375 120 336 71 q 414 224 414 169 q 414 353 414 288 q 415 485 414 418 q 410 800 415 700 q 389 1008 404 900 l 201 1039 l 201 1044 l 725 1044 m 486 1010 l 439 1010 l 439 215 q 378 81 439 136 q 258 18 318 26 q 305 26 274 22 q 378 49 336 31 q 453 117 421 68 q 486 247 486 165 l 486 1010 z "},"K":{"ha":1258,"x_min":10,"x_max":1224,"o":"m 478 600 l 444 568 l 911 35 l 965 39 l 478 600 m 275 1010 l 228 1010 l 228 35 l 275 35 l 275 1010 m 1094 1044 l 1094 1039 l 949 1006 q 812 906 904 983 q 649 764 719 829 q 536 660 578 699 q 808 335 669 492 q 1092 38 947 179 l 1224 8 l 1224 0 l 715 0 l 715 8 l 863 38 l 846 60 q 658 291 765 167 q 428 551 551 415 l 354 486 q 359 244 354 347 q 379 39 364 142 l 560 8 l 560 0 l 10 0 l 10 8 l 182 43 q 191 365 182 135 q 200 682 200 596 q 197 854 200 790 q 182 1001 193 918 l 10 1039 l 10 1044 l 560 1044 l 560 1039 l 363 1001 q 355 905 357 950 q 353 788 353 860 q 353 678 353 732 q 354 569 353 624 l 371 575 q 485 678 426 625 q 687 861 544 731 q 846 1010 829 992 l 682 1039 l 682 1044 l 1094 1044 z "},"L":{"ha":942,"x_min":10,"x_max":903,"o":"m 551 1044 l 551 1039 l 371 1001 q 369 668 371 801 q 365 349 367 535 q 363 92 363 163 q 471 63 414 74 q 583 51 528 51 q 615 49 600 49 q 644 49 629 49 q 735 54 697 49 q 821 76 774 60 l 896 264 l 903 264 l 868 0 l 10 0 l 10 8 l 190 43 l 190 1001 l 10 1039 l 10 1044 l 551 1044 m 275 1010 l 228 1010 l 228 35 l 275 35 l 275 1010 z "},"M":{"ha":1406,"x_min":10,"x_max":1368,"o":"m 1022 797 q 823 388 919 590 q 646 -1 726 185 l 635 -1 q 523 253 581 131 q 409 487 465 376 q 254 785 353 597 q 249 418 254 626 q 242 124 244 210 q 238 39 239 39 l 385 8 l 385 0 l 17 0 l 17 8 l 163 35 l 164 47 q 190 458 182 254 q 197 899 197 663 l 135 1008 l 10 1039 l 10 1044 l 299 1044 q 689 236 471 643 q 892 640 796 438 q 1071 1044 988 842 l 1351 1044 l 1351 1039 l 1188 1010 q 1188 698 1188 856 q 1199 367 1189 540 q 1229 39 1208 193 l 1368 8 l 1368 0 l 853 0 l 853 8 l 1032 39 q 1042 111 1039 67 q 1044 210 1044 156 q 1033 506 1044 299 q 1022 797 1022 713 m 228 1013 l 181 1006 l 622 96 l 650 135 l 228 1013 m 1133 39 l 1096 946 l 1049 867 l 1086 39 l 1133 39 z "},"N":{"ha":1372,"x_min":0,"x_max":1329,"o":"m 1329 1036 l 1161 1006 q 1160 499 1161 767 q 1157 -25 1158 232 l 1138 0 l 885 275 l 324 863 l 286 893 q 289 628 286 788 q 294 315 292 469 q 297 76 297 161 l 299 47 l 479 8 l 479 0 l 64 0 l 64 8 l 228 47 l 228 935 l 129 1014 l 0 1036 l 0 1044 l 344 1044 q 710 653 508 860 q 1103 264 911 447 l 1103 286 q 1097 517 1103 394 q 1084 780 1090 640 q 1078 1006 1078 919 l 910 1036 l 910 1044 l 1329 1044 l 1329 1036 m 1103 143 l 263 1006 l 215 1006 l 1103 83 l 1103 143 z "},"O":{"ha":1204,"x_min":-1,"x_max":1156,"o":"m 1053 846 q 1156 532 1156 707 q 1103 301 1156 426 q 897 81 1050 175 q 569 -12 744 -12 q 238 85 390 -12 q 42 306 86 183 q -1 514 -1 428 q 40 719 -1 619 q 159 898 81 819 q 346 1017 238 976 q 578 1057 454 1057 q 808 1018 717 1057 q 957 938 899 979 q 1053 846 1015 896 m 508 1031 q 295 967 396 1021 q 140 834 194 913 q 58 678 85 756 q 31 522 31 601 q 74 328 31 443 q 245 113 117 213 q 532 13 374 13 q 320 93 415 31 q 173 233 225 156 q 102 382 121 310 q 83 531 83 454 q 125 751 83 656 q 283 935 179 860 q 508 1031 388 1011 m 1028 739 q 885 942 988 865 q 654 1018 782 1018 q 797 980 732 1018 q 919 872 861 942 q 992 708 967 800 q 1018 522 1018 617 q 1000 367 1018 442 q 944 232 982 293 q 813 90 900 144 q 629 25 726 35 q 783 59 719 36 q 917 142 847 82 q 1026 302 988 203 q 1065 515 1065 401 q 1028 739 1065 626 m 932 776 q 833 913 896 864 q 700 979 771 961 q 567 997 629 997 q 410 967 483 997 q 278 870 336 938 q 190 715 221 803 q 160 529 160 626 q 205 313 160 414 q 326 136 250 213 q 467 52 401 60 q 565 44 532 44 q 814 128 718 44 q 944 306 910 213 q 979 508 979 400 q 967 641 979 574 q 932 776 956 708 z "},"P":{"ha":922,"x_min":4,"x_max":879,"o":"m 375 38 l 561 8 l 561 0 l 21 0 l 21 8 l 193 38 q 190 369 193 214 q 184 718 188 525 q 181 1006 181 911 l 4 1039 l 4 1044 l 614 1043 q 741 1013 685 1043 q 833 919 797 982 q 879 754 879 854 q 858 642 879 692 q 735 510 819 561 q 556 449 651 458 q 506 443 535 443 q 458 446 481 443 q 385 461 435 449 l 385 474 q 416 472 403 472 q 439 471 429 471 q 590 502 524 471 q 700 607 657 533 q 717 659 711 629 q 724 724 724 689 q 692 880 724 813 q 603 976 660 947 q 469 1006 546 1006 q 410 1003 435 1006 q 361 993 386 1001 q 364 674 361 829 q 371 327 367 519 q 375 38 375 135 m 454 1024 q 587 1003 529 1024 q 678 949 644 982 q 738 844 719 896 q 757 735 757 793 q 754 683 757 701 q 744 630 751 665 q 688 544 738 594 q 579 474 639 493 q 663 503 624 485 q 735 556 701 522 q 785 635 769 589 q 800 735 800 682 q 772 876 800 808 q 658 983 743 943 q 454 1024 574 1024 m 228 1010 l 228 35 l 275 35 l 275 1010 l 228 1010 z "},"Q":{"ha":1324,"x_min":1,"x_max":1282,"o":"m 1051 824 q 1150 500 1150 679 q 1142 403 1150 449 q 1113 315 1133 358 q 1056 221 1083 268 q 979 135 1019 165 q 1044 114 1008 122 q 1117 106 1081 106 q 1203 120 1164 106 q 1269 169 1242 135 l 1282 186 q 1239 89 1272 138 q 1161 13 1206 40 q 1103 -4 1135 1 q 1040 -10 1071 -10 q 931 3 986 -10 q 824 38 876 15 q 569 -11 706 -11 q 353 25 454 -11 q 181 135 253 61 q 49 310 97 210 q 1 522 1 410 q 16 656 1 569 q 116 845 31 743 q 326 1008 201 947 q 569 1051 435 1051 q 754 1028 667 1051 q 918 957 842 1006 q 1051 824 996 901 m 531 1031 q 259 943 376 1031 q 97 766 142 856 q 42 631 53 676 q 32 532 32 585 q 94 293 32 396 q 279 91 161 169 q 531 13 397 13 q 238 140 333 33 q 110 332 142 246 q 79 513 79 418 q 133 756 79 640 q 297 951 186 872 q 531 1031 407 1031 m 854 100 q 1013 281 964 174 q 1063 510 1063 388 q 1044 663 1063 592 q 980 818 1025 735 q 838 966 935 901 q 629 1031 742 1031 q 765 992 704 1021 q 881 910 826 964 q 984 723 949 825 q 1019 511 1019 621 q 1001 357 1019 429 q 942 217 982 285 q 833 108 903 165 q 653 181 701 164 q 536 199 604 199 q 472 193 499 199 q 411 169 446 188 q 486 179 446 179 q 647 142 557 179 q 799 74 722 107 q 726 42 760 56 q 661 22 693 29 q 732 33 699 22 q 815 68 765 43 q 924 36 858 54 q 1050 18 989 18 q 1136 30 1099 18 q 1208 74 1174 42 q 1151 53 1185 61 q 1085 46 1118 46 l 1068 46 q 1004 53 1060 46 q 854 100 949 61 m 907 824 q 778 957 864 913 q 590 1001 692 1001 q 458 981 521 1001 q 285 869 360 954 q 192 687 211 783 q 174 497 174 590 q 208 292 174 385 q 326 135 243 200 l 397 194 q 484 238 439 225 q 582 251 529 251 q 711 235 653 251 q 871 182 769 219 l 893 211 q 956 357 936 279 q 976 521 976 435 q 958 678 976 600 q 907 824 940 756 m 713 74 q 570 133 626 113 q 457 153 514 153 q 350 122 396 153 q 461 65 397 88 q 585 43 525 43 q 713 74 657 43 z "},"R":{"ha":1208,"x_min":-1,"x_max":1160,"o":"m 190 40 q 194 318 190 138 q 199 585 199 499 q 194 797 199 694 q 178 1004 190 899 l -1 1036 l -1 1044 q 360 1042 153 1044 q 578 1040 568 1040 q 701 1003 642 1040 q 792 920 761 965 q 833 835 822 875 q 844 758 844 796 q 830 668 844 715 q 760 571 815 621 q 639 508 704 521 q 779 396 704 488 q 923 197 846 301 q 1047 58 1000 92 q 1113 16 1093 24 q 1160 8 1133 8 l 1160 0 l 1086 0 q 930 17 992 0 q 811 94 868 35 q 700 243 775 129 q 567 415 625 357 q 426 472 508 472 q 349 458 389 472 q 351 214 349 294 q 371 40 354 133 l 560 8 l 560 0 l 18 0 l 18 8 l 190 40 m 711 907 q 588 1001 661 975 q 422 1028 515 1028 q 523 1007 492 1015 q 590 979 554 999 q 691 880 658 932 q 724 750 724 828 q 695 626 724 685 q 614 532 667 567 q 683 578 654 553 q 730 633 713 603 q 753 691 747 664 q 758 749 758 718 q 746 835 758 792 q 711 907 733 878 m 228 38 l 228 1008 l 228 33 l 275 33 l 275 1008 l 228 1008 l 228 38 m 664 858 q 563 963 625 926 q 428 999 500 999 q 372 992 403 999 q 351 855 357 921 q 346 718 346 789 q 347 624 346 689 q 349 521 349 558 q 390 517 369 518 q 438 515 410 515 q 560 534 508 515 q 651 604 613 553 q 689 743 689 665 q 664 858 689 808 m 735 326 q 662 423 703 375 q 553 471 621 471 q 683 316 615 418 q 792 160 750 214 q 874 71 835 106 q 969 36 913 36 q 989 38 982 36 q 838 178 900 89 q 735 326 775 268 z "},"S":{"ha":656,"x_min":0,"x_max":607,"o":"m 564 1051 l 574 814 l 564 814 l 518 969 q 346 1014 440 1014 q 270 1005 304 1014 q 194 967 236 996 q 142 902 153 939 q 132 843 132 865 q 144 786 132 814 q 176 735 156 758 q 351 605 222 689 q 543 453 479 521 q 607 286 607 386 q 594 199 607 247 q 519 83 574 135 q 418 18 465 32 q 338 -1 371 4 q 268 -6 304 -6 q 177 -1 244 -6 q 76 4 110 4 q 13 0 44 4 l 0 256 l 8 256 l 68 69 q 165 49 119 57 q 249 40 210 40 q 319 49 285 40 q 388 81 354 58 q 445 145 422 104 q 474 233 468 186 q 442 341 474 307 q 272 472 410 375 q 82 622 133 568 q 24 722 31 676 q 17 793 17 768 q 104 979 17 910 q 226 1034 165 1021 q 371 1047 288 1047 q 418 1047 394 1047 q 465 1046 442 1046 q 564 1051 519 1046 m 338 1036 q 169 1001 249 1036 q 57 889 89 965 q 40 800 40 840 q 103 645 40 708 q 291 499 167 582 q 460 365 415 417 q 506 240 506 313 q 479 154 506 193 q 392 60 443 96 q 281 25 340 25 q 406 51 344 25 q 506 133 467 76 q 544 258 544 189 q 530 342 544 286 q 401 477 515 397 q 183 629 288 557 q 75 815 75 718 q 83 876 75 843 q 183 993 110 950 q 338 1036 256 1036 z "},"T":{"ha":1044,"x_min":1,"x_max":993,"o":"m 588 967 q 581 653 588 869 q 574 364 574 438 q 576 181 574 231 q 590 40 579 132 l 768 8 l 768 0 l 228 0 l 228 8 l 400 40 q 428 526 428 267 q 408 967 428 740 q 308 983 363 978 q 199 989 253 989 q 61 978 131 989 l 14 811 l 1 811 l 14 1053 q 235 1050 126 1053 q 497 1044 344 1047 q 740 1049 564 1044 q 981 1053 917 1053 l 993 811 l 981 811 l 935 978 q 792 989 864 989 q 588 967 678 989 m 500 1010 l 453 1010 l 453 35 l 500 35 l 500 1010 z "},"U":{"ha":1269,"x_min":0,"x_max":1224,"o":"m 992 324 l 992 1021 l 946 1018 l 946 349 q 939 244 946 282 q 898 154 932 206 q 801 67 864 103 q 672 25 738 32 q 755 34 713 25 q 838 60 797 43 q 956 172 919 106 q 992 324 992 238 m 613 0 q 336 35 467 0 q 226 111 263 67 q 168 215 190 156 q 155 319 158 257 q 151 492 151 382 q 151 622 151 556 q 153 757 151 689 l 153 790 q 143 1006 153 917 l 0 1036 l 0 1044 l 504 1044 l 504 1036 l 324 1006 q 312 836 315 921 q 308 640 308 751 q 310 457 308 579 q 311 276 311 335 q 340 175 311 228 q 419 96 369 122 q 513 69 468 78 q 613 60 558 60 q 776 90 714 60 q 869 172 839 121 q 911 276 900 224 q 905 702 911 426 q 899 1006 899 978 l 707 1036 l 707 1044 l 1224 1044 l 1224 1036 l 1067 1006 q 1060 871 1063 954 q 1058 751 1058 788 q 1060 603 1058 701 q 1061 460 1061 504 q 1058 312 1061 369 q 1043 209 1054 254 q 991 116 1032 164 q 875 35 950 68 q 613 0 763 0 m 946 1018 l 983 1018 l 946 1018 m 186 324 q 219 170 186 236 q 332 60 251 104 q 430 32 374 43 q 532 21 486 21 q 379 65 458 29 q 276 147 300 101 q 244 230 251 192 q 238 318 238 268 l 238 353 l 238 1021 l 186 1018 l 186 324 z "},"V":{"ha":1200,"x_min":0,"x_max":1160,"o":"m 635 254 q 794 597 710 399 q 961 1008 879 796 l 746 1036 l 746 1044 l 1160 1044 l 1160 1036 l 1017 1008 l 596 0 q 449 322 540 117 q 276 703 357 528 q 129 1008 196 879 l 0 1036 l 0 1044 l 488 1044 l 488 1036 l 314 1008 q 410 753 358 879 q 498 548 463 626 q 635 254 533 469 m 603 156 l 217 1021 l 165 1018 l 579 96 l 603 156 z "},"W":{"ha":1422,"x_min":0,"x_max":1375,"o":"m 1375 1036 l 1238 1006 q 1177 720 1210 888 q 1114 386 1144 553 q 1044 0 1083 219 q 923 276 982 144 q 819 503 864 408 q 676 807 775 599 q 502 390 581 586 q 357 0 424 194 l 346 0 q 250 525 303 276 q 126 1004 197 774 l 0 1036 l 0 1044 l 510 1044 l 510 1036 l 310 1008 q 323 778 310 881 q 360 573 336 675 q 426 332 385 471 q 574 696 496 496 q 713 1056 653 896 q 827 797 763 940 q 941 549 892 653 q 1047 338 990 446 q 1117 675 1089 518 q 1161 1006 1144 832 l 961 1036 l 961 1044 l 1375 1044 l 1375 1036 m 704 907 l 689 842 l 1008 129 l 1024 199 l 704 907 m 357 129 l 376 201 l 213 1008 l 176 1008 q 230 733 200 881 q 292 432 260 586 q 357 129 325 278 z "},"X":{"ha":1336,"x_min":0,"x_max":1289,"o":"m 572 1044 l 572 1036 l 354 1006 q 500 806 422 903 q 681 596 578 708 q 863 805 782 707 q 1021 1008 943 903 l 814 1036 l 814 1044 l 1289 1044 l 1289 1036 l 1118 1008 q 915 790 1021 913 q 717 547 808 667 q 878 347 815 425 q 1011 189 942 268 q 1153 38 1081 110 l 1289 8 l 1289 0 l 704 0 l 704 8 l 936 38 q 788 249 867 149 q 608 461 708 350 q 448 302 515 385 q 244 38 381 219 l 461 8 l 461 0 l 0 0 l 0 8 l 158 38 q 369 278 269 158 q 560 522 469 399 q 418 701 483 619 q 286 858 353 782 q 146 1008 219 933 l 0 1036 l 0 1044 l 572 1044 m 1053 38 l 263 1008 l 194 1008 l 996 38 l 1053 38 z "},"Y":{"ha":1254,"x_min":0,"x_max":1204,"o":"m 553 471 l 553 35 l 592 35 l 592 483 l 238 1000 l 193 1000 l 553 471 m 650 543 q 788 722 750 672 q 880 847 825 771 q 989 1006 935 924 l 782 1036 l 782 1044 l 1204 1044 l 1204 1036 l 1071 1006 q 923 823 989 906 q 798 658 857 740 q 674 471 739 575 q 672 369 674 438 q 671 267 671 301 q 686 35 671 142 l 867 8 l 867 0 l 349 0 l 349 8 l 506 35 q 517 142 514 89 q 521 264 521 194 q 519 368 521 299 q 518 471 518 438 q 327 753 421 621 q 129 1010 233 885 l 0 1036 l 0 1044 l 553 1044 l 553 1036 l 349 1006 q 490 762 419 872 q 650 543 561 651 z "},"Z":{"ha":939,"x_min":0,"x_max":888,"o":"m 888 1044 l 888 1008 q 524 510 708 763 q 294 191 340 257 q 232 86 249 125 q 546 49 390 49 q 803 74 674 49 l 879 256 l 888 256 l 850 0 l 0 0 l 0 38 q 458 669 364 538 q 604 875 553 800 q 668 974 656 950 q 517 994 600 988 q 356 1001 435 1001 q 108 985 224 1001 l 33 803 l 25 803 l 61 1044 l 888 1044 m 803 1021 l 754 1021 l 26 25 l 74 25 l 803 1021 z "},"a":{"ha":1221,"x_min":10,"x_max":1185,"o":"m 954 254 l 1061 40 l 1185 8 l 1185 0 l 676 0 l 676 8 l 876 35 l 872 49 q 824 185 853 110 q 763 336 794 260 l 332 336 q 276 207 301 276 q 215 33 250 138 l 381 8 l 381 0 l 10 0 l 10 8 l 142 35 l 219 203 l 561 1065 l 604 1065 l 954 254 m 979 40 l 975 49 l 575 981 l 553 910 l 922 40 l 979 40 m 742 385 q 667 564 714 458 q 579 757 621 669 q 536 844 538 844 q 442 632 493 756 q 349 385 392 508 q 550 372 453 372 q 742 385 643 372 z "},"b":{"ha":942,"x_min":0,"x_max":892,"o":"m 181 1008 l 0 1039 l 0 1044 l 526 1044 q 719 985 643 1044 q 803 853 796 925 q 807 804 807 828 q 739 624 807 669 q 651 569 671 578 q 582 549 631 560 q 744 510 671 549 q 860 393 818 471 q 892 268 892 343 q 878 180 892 221 q 827 99 865 139 q 732 33 789 58 q 607 0 675 7 l 0 0 l 0 8 l 181 33 q 192 188 189 107 q 194 361 194 268 q 188 701 194 467 q 181 1008 181 935 m 696 926 q 608 1001 660 978 q 492 1025 556 1025 q 458 1024 469 1025 q 540 1008 514 1014 q 604 972 567 1001 q 664 887 642 943 q 686 763 686 831 q 649 642 679 692 q 540 557 618 593 q 633 594 599 576 q 699 665 667 611 q 731 799 731 718 q 696 926 731 869 m 631 893 q 551 972 604 947 q 431 997 499 997 q 361 992 393 997 q 354 833 361 944 q 347 682 347 722 q 347 639 347 657 q 353 582 347 621 l 361 574 q 397 568 385 569 q 435 567 410 567 q 538 585 493 567 q 614 647 583 603 q 654 781 654 700 q 631 893 654 842 m 778 401 q 680 499 743 467 q 540 532 617 532 q 652 485 597 521 q 738 401 707 450 q 767 278 767 347 q 738 147 767 206 q 651 56 708 89 q 532 17 594 24 q 557 15 540 15 q 674 43 619 15 q 771 122 729 71 q 811 275 811 183 q 778 401 811 354 m 664 443 q 563 501 619 483 q 439 518 506 518 q 393 517 408 518 q 381 515 390 514 q 367 517 372 517 q 353 508 357 517 q 352 402 353 456 q 351 294 351 349 q 353 178 351 224 q 361 82 356 133 q 504 42 415 42 q 538 43 525 42 q 588 52 550 44 q 664 101 626 60 q 724 207 701 143 q 730 251 729 238 q 731 272 731 264 q 715 364 731 321 q 664 443 699 407 m 275 1010 l 228 1010 l 228 35 l 275 35 l 275 1010 z "},"c":{"ha":1021,"x_min":1,"x_max":985,"o":"m 961 1060 l 969 1051 l 978 814 l 969 814 l 919 969 q 778 995 853 985 q 636 1006 704 1006 q 472 986 546 1006 q 325 909 397 967 q 211 749 253 851 q 169 531 169 647 q 190 363 169 444 q 349 145 233 235 q 539 48 464 56 q 626 40 614 40 q 653 40 639 40 q 833 78 747 40 q 978 190 919 117 l 985 190 l 879 -6 q 835 1 868 1 q 728 -6 814 1 q 583 -12 642 -12 q 334 22 446 -12 q 142 150 222 56 q 37 317 72 219 q 1 522 1 415 q 51 758 1 639 q 237 968 101 876 q 518 1060 372 1060 q 684 1054 578 1060 q 810 1049 790 1049 q 892 1051 869 1049 q 961 1060 914 1053 m 635 1035 l 518 1035 q 256 955 372 1035 q 88 758 140 875 q 35 510 35 640 q 53 366 35 436 q 133 202 71 296 q 320 59 194 108 q 625 10 446 10 q 317 91 457 10 q 117 322 176 172 q 85 518 85 415 q 182 829 85 699 q 369 990 257 944 q 635 1035 481 1035 z "},"d":{"ha":1225,"x_min":6,"x_max":1179,"o":"m 1096 811 q 1158 676 1136 753 q 1179 519 1179 600 q 1128 275 1179 399 q 945 76 1078 151 q 646 0 813 0 l 6 0 l 6 8 l 181 35 q 201 415 201 208 q 195 760 201 538 q 189 1008 189 982 l 8 1039 l 8 1044 q 301 1042 174 1043 q 596 1040 429 1042 q 888 990 763 1040 q 1096 811 1014 939 m 1031 786 q 835 972 957 926 q 518 1017 713 1017 q 774 973 665 1017 q 964 808 882 929 q 1046 515 1046 688 q 998 276 1046 389 q 845 99 950 164 q 614 21 740 35 q 865 86 757 35 q 1035 258 974 138 q 1096 524 1096 379 q 1081 660 1096 596 q 1031 786 1065 725 m 924 819 q 749 952 856 913 q 522 992 643 992 q 441 988 476 992 q 367 975 406 983 q 349 525 349 772 q 353 299 349 408 q 367 82 357 189 q 483 49 419 58 q 621 40 547 40 q 818 105 724 40 q 965 272 913 169 q 1014 508 1014 381 q 992 674 1014 593 q 924 819 969 754 m 232 1010 l 232 35 l 279 35 l 279 1010 l 232 1010 z "},"e":{"ha":824,"x_min":10,"x_max":781,"o":"m 350 517 q 349 470 350 499 q 349 399 349 442 q 352 227 349 307 q 365 74 356 147 q 482 54 419 60 q 611 49 544 49 q 707 53 663 49 l 772 225 l 781 225 l 763 0 l 18 0 l 18 8 l 182 38 q 207 518 207 265 q 182 1004 207 771 l 10 1039 l 10 1044 l 747 1044 l 764 824 l 756 824 l 699 996 q 616 1004 647 1001 q 550 1007 585 1007 q 446 999 494 1007 q 371 988 397 992 q 355 841 360 922 q 350 676 350 760 l 350 579 q 440 574 385 575 q 504 572 494 572 l 519 572 q 570 572 544 572 q 622 574 596 572 l 638 574 l 678 696 l 686 696 l 686 393 l 678 393 l 638 517 q 492 524 551 524 q 440 523 464 524 q 350 517 415 522 m 275 1010 l 228 1010 l 228 35 l 275 35 l 275 1010 z "},"f":{"ha":815,"x_min":6,"x_max":764,"o":"m 368 40 l 547 8 l 547 0 l 6 0 l 6 8 l 178 40 q 206 547 206 288 q 182 1004 206 776 l 10 1039 l 10 1044 l 747 1044 l 764 824 l 756 824 l 699 996 q 616 1004 647 1001 q 550 1007 585 1007 q 446 999 494 1007 q 371 988 397 992 q 355 841 360 922 q 350 676 350 760 l 350 579 q 440 574 385 575 q 504 572 494 572 l 519 572 q 570 572 544 572 q 622 574 596 572 l 638 574 l 678 696 l 686 696 l 686 393 l 678 393 l 638 517 q 492 524 551 524 q 440 523 464 524 q 350 517 415 522 q 347 440 349 490 q 346 361 346 389 q 349 222 346 290 q 361 92 351 154 l 368 40 m 275 1010 l 228 1010 l 228 35 l 275 35 l 275 1010 z "},"g":{"ha":1168,"x_min":21,"x_max":1126,"o":"m 971 1051 l 979 810 l 971 810 l 914 974 q 774 994 832 988 q 651 1001 717 1001 q 475 978 554 1001 q 328 894 396 956 q 224 738 261 832 q 188 543 188 644 q 231 328 188 438 q 393 138 274 219 q 643 56 513 56 q 840 81 742 56 q 849 124 846 96 q 851 185 851 153 q 848 276 851 235 q 840 350 844 318 l 660 383 l 660 392 l 1126 392 l 1126 383 l 1024 353 q 1009 213 1014 271 q 1004 88 1004 156 q 802 15 914 42 q 583 -12 690 -12 q 394 10 481 -12 q 219 92 308 32 q 75 262 129 151 q 21 503 21 372 q 44 676 21 572 q 156 882 68 781 q 333 1011 243 983 q 487 1047 422 1039 q 617 1054 551 1054 q 742 1051 685 1054 q 879 1046 799 1049 q 971 1051 932 1046 m 922 104 l 922 358 l 881 358 l 881 90 q 899 94 890 92 q 922 104 908 97 m 646 10 q 338 91 478 10 q 138 322 197 172 q 106 519 106 418 q 130 686 106 606 q 203 829 154 767 q 390 989 278 943 q 656 1035 501 1035 q 615 1038 638 1038 q 582 1038 593 1038 q 279 956 397 1038 q 108 757 161 874 q 56 510 56 640 q 74 366 56 436 q 153 202 92 296 q 341 59 215 108 q 646 10 467 10 z "},"h":{"ha":1381,"x_min":0,"x_max":1336,"o":"m 1026 553 q 1017 788 1026 647 q 1008 1004 1008 929 l 811 1039 l 811 1044 l 1336 1044 l 1336 1039 l 1190 1004 q 1182 856 1185 944 q 1179 682 1179 768 q 1185 308 1179 551 q 1190 40 1190 64 l 1336 6 l 1336 0 l 811 0 l 811 6 l 1008 40 q 1016 277 1008 121 q 1024 496 1024 433 l 314 496 q 321 268 314 408 q 328 40 328 128 l 525 6 l 525 0 l 0 0 l 0 6 l 146 40 l 146 1004 l 0 1039 l 0 1044 l 525 1044 l 525 1039 l 328 1004 q 321 779 328 915 q 314 553 314 643 q 489 539 401 543 q 675 535 576 535 q 853 539 765 535 q 1026 553 940 543 m 238 1010 l 190 1010 l 190 35 l 238 35 l 238 1010 m 1061 1010 l 1061 35 l 1108 35 l 1108 1010 l 1061 1010 z "},"i":{"ha":578,"x_min":8,"x_max":539,"o":"m 367 35 l 539 6 l 539 0 l 13 0 l 13 6 l 178 38 q 201 496 201 265 q 174 1008 201 754 l 8 1039 l 8 1044 l 535 1044 l 535 1039 l 363 1010 q 336 540 336 789 q 367 35 336 275 m 275 1010 l 228 1010 l 228 35 l 275 35 l 275 1010 z "},"j":{"ha":768,"x_min":13,"x_max":725,"o":"m 725 1044 l 725 1039 l 578 1010 q 560 815 564 928 q 557 668 557 701 l 557 526 q 553 343 557 413 q 536 190 550 274 q 472 78 518 128 q 383 15 426 29 q 307 -3 340 1 q 244 -7 274 -7 q 44 26 149 -7 l 13 256 l 29 256 l 103 83 q 169 50 133 63 q 240 38 204 38 q 283 43 265 38 q 375 120 336 71 q 414 224 414 169 q 414 353 414 288 q 415 485 414 418 q 410 800 415 700 q 389 1008 404 900 l 201 1039 l 201 1044 l 725 1044 m 486 1010 l 439 1010 l 439 215 q 378 81 439 136 q 258 18 318 26 q 305 26 274 22 q 378 49 336 31 q 453 117 421 68 q 486 247 486 165 l 486 1010 z "},"k":{"ha":1258,"x_min":10,"x_max":1224,"o":"m 478 600 l 444 568 l 911 35 l 965 39 l 478 600 m 275 1010 l 228 1010 l 228 35 l 275 35 l 275 1010 m 1094 1044 l 1094 1039 l 949 1006 q 812 906 904 983 q 649 764 719 829 q 536 660 578 699 q 808 335 669 492 q 1092 38 947 179 l 1224 8 l 1224 0 l 715 0 l 715 8 l 863 38 l 846 60 q 658 291 765 167 q 428 551 551 415 l 354 486 q 359 244 354 347 q 379 39 364 142 l 560 8 l 560 0 l 10 0 l 10 8 l 182 43 q 191 365 182 135 q 200 682 200 596 q 197 854 200 790 q 182 1001 193 918 l 10 1039 l 10 1044 l 560 1044 l 560 1039 l 363 1001 q 355 905 357 950 q 353 788 353 860 q 353 678 353 732 q 354 569 353 624 l 371 575 q 485 678 426 625 q 687 861 544 731 q 846 1010 829 992 l 682 1039 l 682 1044 l 1094 1044 z "},"l":{"ha":942,"x_min":10,"x_max":903,"o":"m 551 1044 l 551 1039 l 371 1001 q 369 668 371 801 q 365 349 367 535 q 363 92 363 163 q 471 63 414 74 q 583 51 528 51 q 615 49 600 49 q 644 49 629 49 q 735 54 697 49 q 821 76 774 60 l 896 264 l 903 264 l 868 0 l 10 0 l 10 8 l 190 43 l 190 1001 l 10 1039 l 10 1044 l 551 1044 m 275 1010 l 228 1010 l 228 35 l 275 35 l 275 1010 z "},"m":{"ha":1406,"x_min":10,"x_max":1368,"o":"m 1022 797 q 823 388 919 590 q 646 -1 726 185 l 635 -1 q 523 253 581 131 q 409 487 465 376 q 254 785 353 597 q 249 418 254 626 q 242 124 244 210 q 238 39 239 39 l 385 8 l 385 0 l 17 0 l 17 8 l 163 35 l 164 47 q 190 458 182 254 q 197 899 197 663 l 135 1008 l 10 1039 l 10 1044 l 299 1044 q 689 236 471 643 q 892 640 796 438 q 1071 1044 988 842 l 1351 1044 l 1351 1039 l 1188 1010 q 1188 698 1188 856 q 1199 367 1189 540 q 1229 39 1208 193 l 1368 8 l 1368 0 l 853 0 l 853 8 l 1032 39 q 1042 111 1039 67 q 1044 210 1044 156 q 1033 506 1044 299 q 1022 797 1022 713 m 228 1013 l 181 1006 l 622 96 l 650 135 l 228 1013 m 1133 39 l 1096 946 l 1049 867 l 1086 39 l 1133 39 z "},"n":{"ha":1372,"x_min":0,"x_max":1329,"o":"m 1329 1036 l 1161 1006 q 1160 499 1161 767 q 1157 -25 1158 232 l 1138 0 l 885 275 l 324 863 l 286 893 q 289 628 286 788 q 294 315 292 469 q 297 76 297 161 l 299 47 l 479 8 l 479 0 l 64 0 l 64 8 l 228 47 l 228 935 l 129 1014 l 0 1036 l 0 1044 l 344 1044 q 710 653 508 860 q 1103 264 911 447 l 1103 286 q 1097 517 1103 394 q 1084 780 1090 640 q 1078 1006 1078 919 l 910 1036 l 910 1044 l 1329 1044 l 1329 1036 m 1103 143 l 263 1006 l 215 1006 l 1103 83 l 1103 143 z "},"o":{"ha":1204,"x_min":-1,"x_max":1156,"o":"m 1053 846 q 1156 532 1156 707 q 1103 301 1156 426 q 897 81 1050 175 q 569 -12 744 -12 q 238 85 390 -12 q 42 306 86 183 q -1 514 -1 428 q 40 719 -1 619 q 159 898 81 819 q 346 1017 238 976 q 578 1057 454 1057 q 808 1018 717 1057 q 957 938 899 979 q 1053 846 1015 896 m 508 1031 q 295 967 396 1021 q 140 834 194 913 q 58 678 85 756 q 31 522 31 601 q 74 328 31 443 q 245 113 117 213 q 532 13 374 13 q 320 93 415 31 q 173 233 225 156 q 102 382 121 310 q 83 531 83 454 q 125 751 83 656 q 283 935 179 860 q 508 1031 388 1011 m 1028 739 q 885 942 988 865 q 654 1018 782 1018 q 797 980 732 1018 q 919 872 861 942 q 992 708 967 800 q 1018 522 1018 617 q 1000 367 1018 442 q 944 232 982 293 q 813 90 900 144 q 629 25 726 35 q 783 59 719 36 q 917 142 847 82 q 1026 302 988 203 q 1065 515 1065 401 q 1028 739 1065 626 m 932 776 q 833 913 896 864 q 700 979 771 961 q 567 997 629 997 q 410 967 483 997 q 278 870 336 938 q 190 715 221 803 q 160 529 160 626 q 205 313 160 414 q 326 136 250 213 q 467 52 401 60 q 565 44 532 44 q 814 128 718 44 q 944 306 910 213 q 979 508 979 400 q 967 641 979 574 q 932 776 956 708 z "},"p":{"ha":922,"x_min":4,"x_max":879,"o":"m 375 38 l 561 8 l 561 0 l 21 0 l 21 8 l 193 38 q 190 369 193 214 q 184 718 188 525 q 181 1006 181 911 l 4 1039 l 4 1044 l 614 1043 q 741 1013 685 1043 q 833 919 797 982 q 879 754 879 854 q 858 642 879 692 q 735 510 819 561 q 556 449 651 458 q 506 443 535 443 q 458 446 481 443 q 385 461 435 449 l 385 474 q 416 472 403 472 q 439 471 429 471 q 590 502 524 471 q 700 607 657 533 q 717 659 711 629 q 724 724 724 689 q 692 880 724 813 q 603 976 660 947 q 469 1006 546 1006 q 410 1003 435 1006 q 361 993 386 1001 q 364 674 361 829 q 371 327 367 519 q 375 38 375 135 m 454 1024 q 587 1003 529 1024 q 678 949 644 982 q 738 844 719 896 q 757 735 757 793 q 754 683 757 701 q 744 630 751 665 q 688 544 738 594 q 579 474 639 493 q 663 503 624 485 q 735 556 701 522 q 785 635 769 589 q 800 735 800 682 q 772 876 800 808 q 658 983 743 943 q 454 1024 574 1024 m 228 1010 l 228 35 l 275 35 l 275 1010 l 228 1010 z "},"q":{"ha":1324,"x_min":1,"x_max":1282,"o":"m 1051 824 q 1150 500 1150 679 q 1142 403 1150 449 q 1113 315 1133 358 q 1056 221 1083 268 q 979 135 1019 165 q 1044 114 1008 122 q 1117 106 1081 106 q 1203 120 1164 106 q 1269 169 1242 135 l 1282 186 q 1239 89 1272 138 q 1161 13 1206 40 q 1103 -4 1135 1 q 1040 -10 1071 -10 q 931 3 986 -10 q 824 38 876 15 q 569 -11 706 -11 q 353 25 454 -11 q 181 135 253 61 q 49 310 97 210 q 1 522 1 410 q 16 656 1 569 q 116 845 31 743 q 326 1008 201 947 q 569 1051 435 1051 q 754 1028 667 1051 q 918 957 842 1006 q 1051 824 996 901 m 531 1031 q 259 943 376 1031 q 97 766 142 856 q 42 631 53 676 q 32 532 32 585 q 94 293 32 396 q 279 91 161 169 q 531 13 397 13 q 238 140 333 33 q 110 332 142 246 q 79 513 79 418 q 133 756 79 640 q 297 951 186 872 q 531 1031 407 1031 m 854 100 q 1013 281 964 174 q 1063 510 1063 388 q 1044 663 1063 592 q 980 818 1025 735 q 838 966 935 901 q 629 1031 742 1031 q 765 992 704 1021 q 881 910 826 964 q 984 723 949 825 q 1019 511 1019 621 q 1001 357 1019 429 q 942 217 982 285 q 833 108 903 165 q 653 181 701 164 q 536 199 604 199 q 472 193 499 199 q 411 169 446 188 q 486 179 446 179 q 647 142 557 179 q 799 74 722 107 q 726 42 760 56 q 661 22 693 29 q 732 33 699 22 q 815 68 765 43 q 924 36 858 54 q 1050 18 989 18 q 1136 30 1099 18 q 1208 74 1174 42 q 1151 53 1185 61 q 1085 46 1118 46 l 1068 46 q 1004 53 1060 46 q 854 100 949 61 m 907 824 q 778 957 864 913 q 590 1001 692 1001 q 458 981 521 1001 q 285 869 360 954 q 192 687 211 783 q 174 497 174 590 q 208 292 174 385 q 326 135 243 200 l 397 194 q 484 238 439 225 q 582 251 529 251 q 711 235 653 251 q 871 182 769 219 l 893 211 q 956 357 936 279 q 976 521 976 435 q 958 678 976 600 q 907 824 940 756 m 713 74 q 570 133 626 113 q 457 153 514 153 q 350 122 396 153 q 461 65 397 88 q 585 43 525 43 q 713 74 657 43 z "},"r":{"ha":1208,"x_min":-1,"x_max":1160,"o":"m 190 40 q 194 318 190 138 q 199 585 199 499 q 194 797 199 694 q 178 1004 190 899 l -1 1036 l -1 1044 q 360 1042 153 1044 q 578 1040 568 1040 q 701 1003 642 1040 q 792 920 761 965 q 833 835 822 875 q 844 758 844 796 q 830 668 844 715 q 760 571 815 621 q 639 508 704 521 q 779 396 704 488 q 923 197 846 301 q 1047 58 1000 92 q 1113 16 1093 24 q 1160 8 1133 8 l 1160 0 l 1086 0 q 930 17 992 0 q 811 94 868 35 q 700 243 775 129 q 567 415 625 357 q 426 472 508 472 q 349 458 389 472 q 351 214 349 294 q 371 40 354 133 l 560 8 l 560 0 l 18 0 l 18 8 l 190 40 m 711 907 q 588 1001 661 975 q 422 1028 515 1028 q 523 1007 492 1015 q 590 979 554 999 q 691 880 658 932 q 724 750 724 828 q 695 626 724 685 q 614 532 667 567 q 683 578 654 553 q 730 633 713 603 q 753 691 747 664 q 758 749 758 718 q 746 835 758 792 q 711 907 733 878 m 228 38 l 228 1008 l 228 33 l 275 33 l 275 1008 l 228 1008 l 228 38 m 664 858 q 563 963 625 926 q 428 999 500 999 q 372 992 403 999 q 351 855 357 921 q 346 718 346 789 q 347 624 346 689 q 349 521 349 558 q 390 517 369 518 q 438 515 410 515 q 560 534 508 515 q 651 604 613 553 q 689 743 689 665 q 664 858 689 808 m 735 326 q 662 423 703 375 q 553 471 621 471 q 683 316 615 418 q 792 160 750 214 q 874 71 835 106 q 969 36 913 36 q 989 38 982 36 q 838 178 900 89 q 735 326 775 268 z "},"s":{"ha":656,"x_min":0,"x_max":607,"o":"m 564 1051 l 574 814 l 564 814 l 518 969 q 346 1014 440 1014 q 270 1005 304 1014 q 194 967 236 996 q 142 902 153 939 q 132 843 132 865 q 144 786 132 814 q 176 735 156 758 q 351 605 222 689 q 543 453 479 521 q 607 286 607 386 q 594 199 607 247 q 519 83 574 135 q 418 18 465 32 q 338 -1 371 4 q 268 -6 304 -6 q 177 -1 244 -6 q 76 4 110 4 q 13 0 44 4 l 0 256 l 8 256 l 68 69 q 165 49 119 57 q 249 40 210 40 q 319 49 285 40 q 388 81 354 58 q 445 145 422 104 q 474 233 468 186 q 442 341 474 307 q 272 472 410 375 q 82 622 133 568 q 24 722 31 676 q 17 793 17 768 q 104 979 17 910 q 226 1034 165 1021 q 371 1047 288 1047 q 418 1047 394 1047 q 465 1046 442 1046 q 564 1051 519 1046 m 338 1036 q 169 1001 249 1036 q 57 889 89 965 q 40 800 40 840 q 103 645 40 708 q 291 499 167 582 q 460 365 415 417 q 506 240 506 313 q 479 154 506 193 q 392 60 443 96 q 281 25 340 25 q 406 51 344 25 q 506 133 467 76 q 544 258 544 189 q 530 342 544 286 q 401 477 515 397 q 183 629 288 557 q 75 815 75 718 q 83 876 75 843 q 183 993 110 950 q 338 1036 256 1036 z "},"t":{"ha":1044,"x_min":1,"x_max":993,"o":"m 588 967 q 581 653 588 869 q 574 364 574 438 q 576 181 574 231 q 590 40 579 132 l 768 8 l 768 0 l 228 0 l 228 8 l 400 40 q 428 526 428 267 q 408 967 428 740 q 308 983 363 978 q 199 989 253 989 q 61 978 131 989 l 14 811 l 1 811 l 14 1053 q 235 1050 126 1053 q 497 1044 344 1047 q 740 1049 564 1044 q 981 1053 917 1053 l 993 811 l 981 811 l 935 978 q 792 989 864 989 q 588 967 678 989 m 500 1010 l 453 1010 l 453 35 l 500 35 l 500 1010 z "},"u":{"ha":1269,"x_min":0,"x_max":1224,"o":"m 992 324 l 992 1021 l 946 1018 l 946 349 q 939 244 946 282 q 898 154 932 206 q 801 67 864 103 q 672 25 738 32 q 755 34 713 25 q 838 60 797 43 q 956 172 919 106 q 992 324 992 238 m 613 0 q 336 35 467 0 q 226 111 263 67 q 168 215 190 156 q 155 319 158 257 q 151 492 151 382 q 151 622 151 556 q 153 757 151 689 l 153 790 q 143 1006 153 917 l 0 1036 l 0 1044 l 504 1044 l 504 1036 l 324 1006 q 312 836 315 921 q 308 640 308 751 q 310 457 308 579 q 311 276 311 335 q 340 175 311 228 q 419 96 369 122 q 513 69 468 78 q 613 60 558 60 q 776 90 714 60 q 869 172 839 121 q 911 276 900 224 q 905 702 911 426 q 899 1006 899 978 l 707 1036 l 707 1044 l 1224 1044 l 1224 1036 l 1067 1006 q 1060 871 1063 954 q 1058 751 1058 788 q 1060 603 1058 701 q 1061 460 1061 504 q 1058 312 1061 369 q 1043 209 1054 254 q 991 116 1032 164 q 875 35 950 68 q 613 0 763 0 m 946 1018 l 983 1018 l 946 1018 m 186 324 q 219 170 186 236 q 332 60 251 104 q 430 32 374 43 q 532 21 486 21 q 379 65 458 29 q 276 147 300 101 q 244 230 251 192 q 238 318 238 268 l 238 353 l 238 1021 l 186 1018 l 186 324 z "},"v":{"ha":1200,"x_min":0,"x_max":1160,"o":"m 635 254 q 794 597 710 399 q 961 1008 879 796 l 746 1036 l 746 1044 l 1160 1044 l 1160 1036 l 1017 1008 l 596 0 q 449 322 540 117 q 276 703 357 528 q 129 1008 196 879 l 0 1036 l 0 1044 l 488 1044 l 488 1036 l 314 1008 q 410 753 358 879 q 498 548 463 626 q 635 254 533 469 m 603 156 l 217 1021 l 165 1018 l 579 96 l 603 156 z "},"w":{"ha":1422,"x_min":0,"x_max":1375,"o":"m 1375 1036 l 1238 1006 q 1177 720 1210 888 q 1114 386 1144 553 q 1044 0 1083 219 q 923 276 982 144 q 819 503 864 408 q 676 807 775 599 q 502 390 581 586 q 357 0 424 194 l 346 0 q 250 525 303 276 q 126 1004 197 774 l 0 1036 l 0 1044 l 510 1044 l 510 1036 l 310 1008 q 323 778 310 881 q 360 573 336 675 q 426 332 385 471 q 574 696 496 496 q 713 1056 653 896 q 827 797 763 940 q 941 549 892 653 q 1047 338 990 446 q 1117 675 1089 518 q 1161 1006 1144 832 l 961 1036 l 961 1044 l 1375 1044 l 1375 1036 m 704 907 l 689 842 l 1008 129 l 1024 199 l 704 907 m 357 129 l 376 201 l 213 1008 l 176 1008 q 230 733 200 881 q 292 432 260 586 q 357 129 325 278 z "},"x":{"ha":1336,"x_min":0,"x_max":1289,"o":"m 572 1044 l 572 1036 l 354 1006 q 500 806 422 903 q 681 596 578 708 q 863 805 782 707 q 1021 1008 943 903 l 814 1036 l 814 1044 l 1289 1044 l 1289 1036 l 1118 1008 q 915 790 1021 913 q 717 547 808 667 q 878 347 815 425 q 1011 189 942 268 q 1153 38 1081 110 l 1289 8 l 1289 0 l 704 0 l 704 8 l 936 38 q 788 249 867 149 q 608 461 708 350 q 448 302 515 385 q 244 38 381 219 l 461 8 l 461 0 l 0 0 l 0 8 l 158 38 q 369 278 269 158 q 560 522 469 399 q 418 701 483 619 q 286 858 353 782 q 146 1008 219 933 l 0 1036 l 0 1044 l 572 1044 m 1053 38 l 263 1008 l 194 1008 l 996 38 l 1053 38 z "},"y":{"ha":1254,"x_min":0,"x_max":1204,"o":"m 553 471 l 553 35 l 592 35 l 592 483 l 238 1000 l 193 1000 l 553 471 m 650 543 q 788 722 750 672 q 880 847 825 771 q 989 1006 935 924 l 782 1036 l 782 1044 l 1204 1044 l 1204 1036 l 1071 1006 q 923 823 989 906 q 798 658 857 740 q 674 471 739 575 q 672 369 674 438 q 671 267 671 301 q 686 35 671 142 l 867 8 l 867 0 l 349 0 l 349 8 l 506 35 q 517 142 514 89 q 521 264 521 194 q 519 368 521 299 q 518 471 518 438 q 327 753 421 621 q 129 1010 233 885 l 0 1036 l 0 1044 l 553 1044 l 553 1036 l 349 1006 q 490 762 419 872 q 650 543 561 651 z "},"z":{"ha":939,"x_min":0,"x_max":888,"o":"m 888 1044 l 888 1008 q 524 510 708 763 q 294 191 340 257 q 232 86 249 125 q 546 49 390 49 q 803 74 674 49 l 879 256 l 888 256 l 850 0 l 0 0 l 0 38 q 458 669 364 538 q 604 875 553 800 q 668 974 656 950 q 517 994 600 988 q 356 1001 435 1001 q 108 985 224 1001 l 33 803 l 25 803 l 61 1044 l 888 1044 m 803 1021 l 754 1021 l 26 25 l 74 25 l 803 1021 z "}," ":{"ha":694,"x_min":0,"x_max":0,"o":""},"“":{"ha":431,"x_min":0,"x_max":368,"o":"m 82 897 q 41 878 57 897 q 25 833 25 860 q 41 792 25 810 q 82 771 57 775 l 82 897 m 0 838 q 42 964 0 913 q 139 1044 83 1015 l 139 1035 q 101 977 114 1006 q 88 919 88 949 q 147 893 122 919 q 172 829 172 867 q 147 769 172 793 q 88 746 122 746 q 24 773 49 746 q 0 838 0 800 m 279 897 q 238 879 254 897 q 221 833 221 861 q 238 793 221 811 q 279 771 254 775 l 279 897 m 197 838 q 240 965 197 913 q 336 1044 282 1017 l 336 1035 q 298 977 311 1006 q 285 919 285 949 q 343 893 318 919 q 368 829 368 867 q 344 770 368 794 q 285 746 319 746 q 222 773 246 746 q 197 838 197 800 z "},"”":{"ha":431,"x_min":0,"x_max":368,"o":"m 82 897 l 82 1024 q 41 1002 57 1019 q 25 961 25 985 q 41 916 25 935 q 82 897 57 897 m 172 953 q 131 826 172 878 q 33 746 89 775 l 33 756 q 83 871 83 813 q 25 897 50 871 q 0 961 0 924 q 24 1020 0 996 q 83 1044 49 1044 q 148 1017 124 1044 q 172 953 172 990 m 279 897 l 279 1024 q 221 961 221 1014 q 238 917 221 936 q 279 897 254 897 m 368 953 q 326 826 368 878 q 229 746 283 774 l 229 756 q 267 813 254 785 q 281 871 281 842 q 222 897 247 871 q 197 961 197 924 q 222 1020 197 996 q 281 1044 246 1044 q 344 1017 319 1044 q 368 953 368 990 z "},"‘":{"ha":229,"x_min":0,"x_max":172,"o":"m 82 897 q 41 878 57 897 q 25 833 25 860 q 41 792 25 810 q 82 771 57 775 l 82 897 m 0 838 q 42 964 0 913 q 139 1044 83 1015 l 139 1035 q 101 977 114 1006 q 88 919 88 949 q 147 893 122 919 q 172 829 172 867 q 147 769 172 793 q 88 746 122 746 q 24 773 49 746 q 0 838 0 800 z "},"’":{"ha":229,"x_min":0,"x_max":172,"o":"m 82 897 l 82 1024 q 41 1002 57 1019 q 25 961 25 985 q 41 916 25 935 q 82 897 57 897 m 172 953 q 131 826 172 878 q 33 746 89 775 l 33 756 q 83 871 83 813 q 25 897 50 871 q 0 961 0 924 q 24 1020 0 996 q 83 1044 49 1044 q 148 1017 124 1044 q 172 953 172 990 z "}}}
